<svg width="3173pt" height="776pt" viewBox="0.00 0.00 3172.98 776.38" xmlns="http://www.w3.org/2000/svg"><g class="graph" transform="translate(7.992 768.392)"><title>G</title><path fill="#eef" stroke="transparent" d="M-7.992 7.992v-776.384h3172.984V7.992H-7.992z"/><g class="node"><title>components/main-header/main-header.html</title><path fill="none" stroke="#0c821d" stroke-width="4" d="M296.7-596.9H.1v296.6h296.6v-296.6z"/><text text-anchor="middle" x="148.4" y="-446.2" font-family="Fira Code" font-size="12" fill="#0c821d">components/main-header/main-header.html</text></g><g class="node"><title>components/main-header/main-header.scss</title><path fill="none" stroke="#0c821d" stroke-width="4" d="M611.7-596.9H315.1v296.6h296.6v-296.6z"/><text text-anchor="middle" x="463.4" y="-446.2" font-family="Fira Code" font-size="12" fill="#0c821d">components/main-header/main-header.scss</text></g><g class="node"><title>components/main-header/main-header.ts</title><path fill="none" stroke="#0c821d" stroke-width="4" d="M912.8-590H630v282.8h282.8V-590z"/><text text-anchor="middle" x="771.4" y="-446.2" font-family="Fira Code" font-size="12" fill="#0c821d">components/main-header/main-header.ts</text></g><g class="node"><title>index.ts</title><path fill="none" stroke="#242424" stroke-width="4" d="M1434.001-760.201H1360.8V-687H1434V-760.2z"/><text text-anchor="middle" x="1397.4" y="-721.2" font-family="Fira Code" font-size="12" fill="#242424">index.ts</text></g><g class="edge"><title>index.ts-&gt;components/main-header/main-header.html</title><path fill="none" stroke="#242424" d="M1360.665-722.974C1192.866-719.622 499.157-700.31 306.4-607.8a209.738 209.738 0 0 0-10.974 5.678"/><path fill="#242424" stroke="#242424" d="M296.914-598.938l-10.4 2.025 6.868-8.068 3.532 6.043z"/></g><g class="edge"><title>index.ts-&gt;components/main-header/main-header.scss</title><path fill="none" stroke="#242424" d="M1360.406-721.168c-135.88 9.4-606.39 46.227-739.006 113.368-3.414 1.729-6.8 3.56-10.153 5.481"/><path fill="#242424" stroke="#242424" d="M612.821-599.181l-10.373 2.157 6.764-8.155 3.61 5.998z"/></g><g class="edge"><title>index.ts-&gt;components/main-header/main-header.ts</title><path fill="none" stroke="#242424" d="M1360.628-721.412c-82.808 6.328-288.07 29.943-434.228 113.612-6.33 3.623-12.57 7.58-18.698 11.8"/><path fill="#242424" stroke="#242424" d="M909.588-593.046l-10.174 2.959 6.108-8.657 4.066 5.698z"/></g><g class="node"><title>services/productsService.ts</title><path fill="none" stroke="#0c821d" stroke-width="4" d="M2417.8-210.6H2207V.2h210.8v-210.8z"/><text text-anchor="middle" x="2312.4" y="-102.8" font-family="Fira Code" font-size="12" fill="#0c821d">services/productsService.ts</text></g><g class="edge"><title>index.ts-&gt;services/productsService.ts</title><path fill="none" stroke="#242424" d="M1360.513-719.545c-96.343 11.427-351.508 47.32-401.113 111.745-43.167 56.062-46.535 265.1 0 318.4 81.168 92.967 925.53 156.57 1237.765 177.066"/><path fill="#242424" stroke="#242424" d="M2197.396-115.827l9.75 4.145-10.206 2.84.456-6.985z"/></g><g class="node"><title>views/home/home.html</title><path fill="none" stroke="#0c821d" stroke-width="4" d="M1128.4-528.6h-160v160h160v-160z"/><text text-anchor="middle" x="1048.4" y="-446.2" font-family="Fira Code" font-size="12" fill="#0c821d">views/home/home.html</text></g><g class="edge"><title>index.ts-&gt;views/home/home.html</title><path fill="none" stroke="#242424" d="M1360.534-715.135c-54.463 14.11-157.088 47.026-223.134 107.335-21.138 19.302-38.445 44.823-51.991 69.764"/><path fill="#242424" stroke="#242424" d="M1088.346-536.101l-7.758 7.215 1.565-10.478 6.193 3.263z"/></g><g class="node"><title>views/home/home.scss</title><path fill="none" stroke="#0c821d" stroke-width="4" d="M1306.4-528.6h-160v160h160v-160z"/><text text-anchor="middle" x="1226.4" y="-446.2" font-family="Fira Code" font-size="12" fill="#0c821d">views/home/home.scss</text></g><g class="edge"><title>index.ts-&gt;views/home/home.scss</title><path fill="none" stroke="#242424" d="M1369.97-686.997c-16.44 22.45-37.413 52.01-54.57 79.197-14.086 22.32-28.434 46.982-41.38 70.096"/><path fill="#242424" stroke="#242424" d="M1277.055-535.961l-7.925 7.031 1.81-10.439 6.115 3.408z"/></g><g class="node"><title>views/home/home.ts</title><path fill="none" stroke="#0c821d" stroke-width="4" d="M1470-521.2h-145.2V-376H1470v-145.2z"/><text text-anchor="middle" x="1397.4" y="-446.2" font-family="Fira Code" font-size="12" fill="#0c821d">views/home/home.ts</text></g><g class="edge"><title>index.ts-&gt;views/home/home.ts</title><path fill="none" stroke="#242424" d="M1397.4-686.798v155.344"/><path fill="#242424" stroke="#242424" d="M1400.9-531.28l-3.5 10-3.5-10h7z"/></g><g class="node"><title>views/product-details/product-details.html</title><path fill="none" stroke="#0c821d" stroke-width="4" d="M1806.8-608H1488v318.8h318.8V-608z"/><text text-anchor="middle" x="1647.4" y="-446.2" font-family="Fira Code" font-size="12" fill="#0c821d">views/product-details/product-details.html</text></g><g class="edge"><title>index.ts-&gt;views/product-details/product-details.html</title><path fill="none" stroke="#242424" d="M1430.857-686.798l64.826 71.31"/><path fill="#242424" stroke="#242424" d="M1498.444-617.655l4.137 9.754-9.317-5.045 5.18-4.709z"/></g><g class="node"><title>views/product-details/product-details.scss</title><path fill="none" stroke="#0c821d" stroke-width="4" d="M2142.8-608H1824v318.8h318.8V-608z"/><text text-anchor="middle" x="1983.4" y="-446.2" font-family="Fira Code" font-size="12" fill="#0c821d">views/product-details/product-details.scss</text></g><g class="edge"><title>index.ts-&gt;views/product-details/product-details.scss</title><path fill="none" stroke="#242424" d="M1434.056-719.502c75.637 9.709 252.686 38.994 381.344 111.702l.27.153"/><path fill="#242424" stroke="#242424" d="M1817.178-610.82l6.843 8.088-10.393-2.056 3.55-6.033z"/></g><g class="node"><title>views/product-details/product-details.ts</title><path fill="none" stroke="#242424" stroke-width="4" d="M2464.4-600.6h-304v304h304v-304z"/><text text-anchor="middle" x="2312.4" y="-446.2" font-family="Fira Code" font-size="12" fill="#242424">views/product-details/product-details.ts</text></g><g class="edge"><title>index.ts-&gt;views/product-details/product-details.ts</title><path fill="none" stroke="#242424" d="M1434.241-720.957c133.15 10.013 588.348 48.359 717.159 113.157 1.372.69 2.74 1.396 4.102 2.117"/><path fill="#242424" stroke="#242424" d="M2157.399-608.632l7.029 7.927-10.438-1.813 3.409-6.114z"/></g><g class="node"><title>views/products/products.html</title><path fill="none" stroke="#0c821d" stroke-width="4" d="M2700-557.2h-217.2V-340H2700v-217.2z"/><text text-anchor="middle" x="2591.4" y="-446.2" font-family="Fira Code" font-size="12" fill="#0c821d">views/products/products.html</text></g><g class="edge"><title>index.ts-&gt;views/products/products.html</title><path fill="none" stroke="#242424" d="M1434.175-721.393C1612.371-710.47 2381.23-660.583 2473.4-607.8c18.9 10.823 35.667 26.028 50.202 42.787"/><path fill="#242424" stroke="#242424" d="M2526.394-567.131l3.729 9.916-9.1-5.426 5.37-4.49z"/></g><g class="node"><title>views/products/products.scss</title><path fill="none" stroke="#0c821d" stroke-width="4" d="M2936-557.2h-217.2V-340H2936v-217.2z"/><text text-anchor="middle" x="2827.4" y="-446.2" font-family="Fira Code" font-size="12" fill="#0c821d">views/products/products.scss</text></g><g class="edge"><title>index.ts-&gt;views/products/products.scss</title><path fill="none" stroke="#242424" d="M1434.293-722.142c201.17 8.188 1160.888 50.379 1275.107 114.342 19.002 10.641 35.822 25.755 50.377 42.478"/><path fill="#242424" stroke="#242424" d="M2762.563-567.447l3.742 9.911-9.107-5.414 5.365-4.497z"/></g><g class="node"><title>views/products/products.ts</title><path fill="none" stroke="#242424" stroke-width="4" d="M3157.1-550.3h-203.4v203.4h203.4v-203.4z"/><text text-anchor="middle" x="3055.4" y="-446.2" font-family="Fira Code" font-size="12" fill="#242424">views/products/products.ts</text></g><g class="edge"><title>index.ts-&gt;views/products/products.ts</title><path fill="none" stroke="#242424" d="M1434.219-722.735C1656.113-717.27 2810.222-685.273 2945.4-607.8c21.006 12.04 38.903 29.917 53.777 49.392"/><path fill="#242424" stroke="#242424" d="M3002.05-560.408l3.103 10.13-8.743-5.984 5.64-4.146z"/></g><g class="edge"><title>views/product-details/product-details.ts-&gt;services/productsService.ts</title><path fill="none" stroke="#242424" d="M2312.4-296.48v75.761"/><path fill="#242424" stroke="#242424" d="M2315.9-220.406l-3.5 10-3.5-10h7z"/></g><g class="edge"><title>views/products/products.ts-&gt;services/productsService.ts</title><path fill="none" stroke="#242424" d="M3000.641-346.959c-15.47 21.469-33.986 42.234-55.241 57.559-156.919 113.136-382.562 157.174-517.78 174.039"/><path fill="#242424" stroke="#242424" d="M2427.992-111.88l-10.35-2.266 9.503-4.683.847 6.948z"/></g></g></svg>